<svg xmlns="http://www.w3.org/2000/svg" xmlns:xlink="http://www.w3.org/1999/xlink" width="51" zoomAndPan="magnify" viewBox="0 0 38.25 38.249999" height="51" preserveAspectRatio="xMidYMid meet" version="1.2"><defs><clipPath id="709f3fd3cf"><path d="M 6 6 L 35 6 L 35 29 L 6 29 Z M 6 6 "/></clipPath><clipPath id="85f4088b96"><path d="M 5.46875 0 L 37.363281 5.503906 L 31.859375 37.398438 L -0.0351562 31.894531 Z M 5.46875 0 "/></clipPath><clipPath id="0d7a9bee8c"><path d="M 5.46875 0 L 37.363281 5.503906 L 31.859375 37.398438 L -0.0351562 31.894531 Z M 5.46875 0 "/></clipPath><clipPath id="f27265d681"><path d="M 18 10 L 28 10 L 28 20 L 18 20 Z M 18 10 "/></clipPath><clipPath id="93125c30c8"><path d="M 5.46875 0 L 37.363281 5.503906 L 31.859375 37.398438 L -0.0351562 31.894531 Z M 5.46875 0 "/></clipPath><clipPath id="5c880dc836"><path d="M 5.46875 0 L 37.363281 5.503906 L 31.859375 37.398438 L -0.0351562 31.894531 Z M 5.46875 0 "/></clipPath><clipPath id="1c61b1a1e1"><path d="M 10 15 L 20 15 L 20 28 L 10 28 Z M 10 15 "/></clipPath><clipPath id="eb45c25f3e"><path d="M 5.46875 0 L 37.363281 5.503906 L 31.859375 37.398438 L -0.0351562 31.894531 Z M 5.46875 0 "/></clipPath><clipPath id="2e3ee0df2b"><path d="M 5.46875 0 L 37.363281 5.503906 L 31.859375 37.398438 L -0.0351562 31.894531 Z M 5.46875 0 "/></clipPath><clipPath id="1b741ae1be"><path d="M 12 24 L 24 24 L 24 34 L 12 34 Z M 12 24 "/></clipPath><clipPath id="f452f9f34c"><path d="M 5.46875 0 L 37.363281 5.503906 L 31.859375 37.398438 L -0.0351562 31.894531 Z M 5.46875 0 "/></clipPath><clipPath id="9b5499733d"><path d="M 5.46875 0 L 37.363281 5.503906 L 31.859375 37.398438 L -0.0351562 31.894531 Z M 5.46875 0 "/></clipPath><clipPath id="9f5c667cb9"><path d="M 2 11 L 15 11 L 15 21 L 2 21 Z M 2 11 "/></clipPath><clipPath id="70db38b730"><path d="M 5.46875 0 L 37.363281 5.503906 L 31.859375 37.398438 L -0.0351562 31.894531 Z M 5.46875 0 "/></clipPath><clipPath id="94c942891e"><path d="M 5.46875 0 L 37.363281 5.503906 L 31.859375 37.398438 L -0.0351562 31.894531 Z M 5.46875 0 "/></clipPath><clipPath id="64762c0b05"><path d="M 1 22 L 7 22 L 7 27 L 1 27 Z M 1 22 "/></clipPath><clipPath id="a628f96ca5"><path d="M 5.46875 0 L 37.363281 5.503906 L 31.859375 37.398438 L -0.0351562 31.894531 Z M 5.46875 0 "/></clipPath><clipPath id="bebc6afd7f"><path d="M 5.46875 0 L 37.363281 5.503906 L 31.859375 37.398438 L -0.0351562 31.894531 Z M 5.46875 0 "/></clipPath><clipPath id="b721a4f795"><path d="M 1 25 L 9 25 L 9 32 L 1 32 Z M 1 25 "/></clipPath><clipPath id="6ca08bc084"><path d="M 5.46875 0 L 37.363281 5.503906 L 31.859375 37.398438 L -0.0351562 31.894531 Z M 5.46875 0 "/></clipPath><clipPath id="7ec94a691b"><path d="M 5.46875 0 L 37.363281 5.503906 L 31.859375 37.398438 L -0.0351562 31.894531 Z M 5.46875 0 "/></clipPath><clipPath id="556e739b95"><path d="M 5 28 L 11 28 L 11 33 L 5 33 Z M 5 28 "/></clipPath><clipPath id="c6ddaae120"><path d="M 5.46875 0 L 37.363281 5.503906 L 31.859375 37.398438 L -0.0351562 31.894531 Z M 5.46875 0 "/></clipPath><clipPath id="7d53425719"><path d="M 5.46875 0 L 37.363281 5.503906 L 31.859375 37.398438 L -0.0351562 31.894531 Z M 5.46875 0 "/></clipPath><clipPath id="fb189c29cc"><path d="M 15.398438 2.492188 L 35 2.492188 L 35 17.9375 L 15.398438 17.9375 Z M 15.398438 2.492188 "/></clipPath></defs><g id="9fd70568bd"><g clip-rule="nonzero" clip-path="url(#709f3fd3cf)"><g clip-rule="nonzero" clip-path="url(#85f4088b96)"><g clip-rule="nonzero" clip-path="url(#0d7a9bee8c)"><path style=" stroke:none;fill-rule:evenodd;fill:#0cc0df;fill-opacity:1;" d="M 33.992188 8.304688 C 33.953125 7.953125 33.738281 7.644531 33.417969 7.488281 C 33.417969 7.488281 25.105469 3.371094 16.65625 9.332031 C 12.492188 12.269531 7.792969 17.445312 6.933594 20.730469 C 6.855469 21.027344 6.910156 21.34375 7.089844 21.59375 L 11.878906 28.382812 C 12.054688 28.632812 12.335938 28.792969 12.640625 28.820312 C 16.023438 29.109375 22.472656 26.417969 26.636719 23.480469 C 35.089844 17.515625 33.992188 8.304688 33.992188 8.304688 Z M 31.953125 9.136719 C 31.996094 11.078125 31.617188 17.410156 25.433594 21.773438 C 21.851562 24.304688 16.441406 26.753906 13.289062 26.757812 C 13.289062 26.757812 9.089844 20.8125 9.089844 20.8125 C 10.15625 17.84375 14.273438 13.566406 17.859375 11.039062 C 24.042969 6.675781 30.132812 8.441406 31.953125 9.132812 Z M 31.953125 9.136719 "/></g></g></g><g clip-rule="nonzero" clip-path="url(#f27265d681)"><g clip-rule="nonzero" clip-path="url(#93125c30c8)"><g clip-rule="nonzero" clip-path="url(#5c880dc836)"><path style=" stroke:none;fill-rule:evenodd;fill:#0cc0df;fill-opacity:1;" d="M 27.023438 12.609375 C 25.589844 10.582031 22.777344 10.09375 20.746094 11.527344 C 18.714844 12.960938 18.230469 15.773438 19.664062 17.804688 C 21.097656 19.835938 23.910156 20.324219 25.941406 18.890625 C 27.972656 17.457031 28.457031 14.640625 27.023438 12.609375 Z M 25.316406 13.816406 C 26.085938 14.90625 25.828125 16.414062 24.738281 17.183594 C 23.648438 17.953125 22.136719 17.691406 21.367188 16.601562 C 20.597656 15.511719 20.859375 14.003906 21.949219 13.234375 C 23.039062 12.464844 24.550781 12.726562 25.316406 13.816406 Z M 25.316406 13.816406 "/></g></g></g><g clip-rule="nonzero" clip-path="url(#1c61b1a1e1)"><g clip-rule="nonzero" clip-path="url(#eb45c25f3e)"><g clip-rule="nonzero" clip-path="url(#2e3ee0df2b)"><path style=" stroke:none;fill-rule:evenodd;fill:#0cc0df;fill-opacity:1;" d="M 18.832031 25.707031 L 11.9375 15.9375 C 11.609375 15.46875 10.957031 15.355469 10.484375 15.6875 C 10.015625 16.019531 9.902344 16.671875 10.234375 17.144531 L 17.125 26.910156 C 17.460938 27.382812 18.109375 27.492188 18.582031 27.160156 C 19.050781 26.832031 19.164062 26.175781 18.832031 25.707031 Z M 18.832031 25.707031 "/></g></g></g><g clip-rule="nonzero" clip-path="url(#1b741ae1be)"><g clip-rule="nonzero" clip-path="url(#f452f9f34c)"><g clip-rule="nonzero" clip-path="url(#9b5499733d)"><path style=" stroke:none;fill-rule:evenodd;fill:#0cc0df;fill-opacity:1;" d="M 21.070312 25.152344 C 21.070312 25.152344 20.472656 27.382812 20.058594 28.925781 C 19.90625 29.492188 19.484375 29.941406 18.929688 30.125 L 15.152344 31.390625 C 15.152344 31.390625 15.6875 28.289062 15.6875 28.289062 C 15.785156 27.722656 15.40625 27.183594 14.835938 27.085938 C 14.269531 26.988281 13.730469 27.367188 13.632812 27.933594 L 12.796875 32.757812 C 12.734375 33.121094 12.867188 33.488281 13.148438 33.726562 C 13.425781 33.96875 13.808594 34.042969 14.160156 33.925781 C 14.160156 33.925781 17.585938 32.777344 19.59375 32.105469 C 20.8125 31.699219 21.742188 30.707031 22.074219 29.46875 C 22.488281 27.921875 23.085938 25.6875 23.085938 25.6875 C 23.234375 25.132812 22.902344 24.5625 22.347656 24.414062 C 21.789062 24.261719 21.21875 24.59375 21.070312 25.152344 Z M 21.070312 25.152344 "/></g></g></g><g clip-rule="nonzero" clip-path="url(#9f5c667cb9)"><g clip-rule="nonzero" clip-path="url(#70db38b730)"><g clip-rule="nonzero" clip-path="url(#94c942891e)"><path style=" stroke:none;fill-rule:evenodd;fill:#0cc0df;fill-opacity:1;" d="M 13.382812 11.9375 C 13.382812 11.9375 11.078125 11.753906 9.484375 11.625 C 8.203125 11.519531 6.957031 12.066406 6.164062 13.078125 C 4.859375 14.742188 2.628906 17.585938 2.628906 17.585938 C 2.402344 17.878906 2.347656 18.265625 2.476562 18.609375 C 2.609375 18.949219 2.910156 19.199219 3.273438 19.261719 L 8.097656 20.09375 C 8.664062 20.191406 9.207031 19.808594 9.304688 19.242188 C 9.402344 18.675781 9.019531 18.132812 8.453125 18.035156 L 5.351562 17.5 L 7.808594 14.367188 C 8.167969 13.90625 8.734375 13.660156 9.316406 13.707031 C 10.910156 13.832031 13.214844 14.019531 13.214844 14.019531 C 13.789062 14.066406 14.292969 13.636719 14.339844 13.0625 C 14.386719 12.488281 13.957031 11.984375 13.382812 11.9375 Z M 13.382812 11.9375 "/></g></g></g><g clip-rule="nonzero" clip-path="url(#64762c0b05)"><g clip-rule="nonzero" clip-path="url(#a628f96ca5)"><g clip-rule="nonzero" clip-path="url(#bebc6afd7f)"><path style=" stroke:none;fill-rule:evenodd;fill:#0cc0df;fill-opacity:1;" d="M 4.640625 22.894531 L 2.082031 24.695312 C 1.613281 25.03125 1.5 25.679688 1.832031 26.152344 C 2.164062 26.621094 2.816406 26.734375 3.285156 26.402344 L 5.84375 24.597656 C 6.316406 24.265625 6.425781 23.613281 6.09375 23.144531 C 5.761719 22.671875 5.109375 22.558594 4.640625 22.894531 Z M 4.640625 22.894531 "/></g></g></g><g clip-rule="nonzero" clip-path="url(#b721a4f795)"><g clip-rule="nonzero" clip-path="url(#6ca08bc084)"><g clip-rule="nonzero" clip-path="url(#7ec94a691b)"><path style=" stroke:none;fill-rule:evenodd;fill:#0cc0df;fill-opacity:1;" d="M 6.636719 25.722656 L 1.816406 29.121094 C 1.34375 29.453125 1.234375 30.105469 1.566406 30.574219 C 1.898438 31.046875 2.550781 31.160156 3.019531 30.828125 L 7.839844 27.425781 C 8.308594 27.09375 8.421875 26.441406 8.089844 25.972656 C 7.757812 25.5 7.105469 25.386719 6.636719 25.722656 Z M 6.636719 25.722656 "/></g></g></g><g clip-rule="nonzero" clip-path="url(#556e739b95)"><g clip-rule="nonzero" clip-path="url(#c6ddaae120)"><g clip-rule="nonzero" clip-path="url(#7d53425719)"><path style=" stroke:none;fill-rule:evenodd;fill:#0cc0df;fill-opacity:1;" d="M 8.628906 28.546875 L 6.074219 30.351562 C 5.605469 30.683594 5.492188 31.335938 5.824219 31.808594 C 6.15625 32.277344 6.808594 32.390625 7.277344 32.058594 L 9.835938 30.253906 C 10.304688 29.921875 10.417969 29.269531 10.085938 28.800781 C 9.753906 28.328125 9.101562 28.214844 8.628906 28.546875 Z M 8.628906 28.546875 "/></g></g></g><g clip-rule="nonzero" clip-path="url(#fb189c29cc)"><path style=" stroke:none;fill-rule:nonzero;fill:#5e17eb;fill-opacity:1;" d="M 34.242188 3.050781 L 34.121094 2.960938 C 33.722656 2.640625 33.234375 2.503906 32.777344 2.546875 C 32.289062 2.59375 31.847656 2.808594 31.527344 3.1875 L 27.414062 8.035156 L 24.972656 10.976562 L 23.191406 13.128906 L 21.96875 11.832031 L 21.285156 11.113281 L 18.875 8.601562 C 18.523438 8.234375 18.066406 8.050781 17.578125 8.019531 C 17.121094 7.988281 16.632812 8.1875 16.285156 8.523438 L 16.164062 8.644531 C 15.414062 9.332031 15.398438 10.519531 16.085938 11.253906 L 18.464844 13.753906 L 19.148438 14.5 L 21.894531 17.378906 C 22.214844 17.699219 22.640625 17.914062 23.050781 17.929688 C 23.082031 17.929688 23.082031 17.929688 23.097656 17.929688 C 23.128906 17.929688 23.144531 17.929688 23.191406 17.929688 C 23.191406 17.929688 23.191406 17.929688 23.21875 17.929688 C 23.296875 17.929688 23.359375 17.929688 23.449219 17.929688 C 23.9375 17.882812 24.378906 17.671875 24.699219 17.289062 L 28.785156 12.441406 L 30.386719 10.503906 L 34.472656 5.65625 C 35.109375 4.878906 35.019531 3.722656 34.242188 3.050781 Z M 34.242188 3.050781 "/></g></g></svg>